<mxfile host="Electron" agent="Mozilla/5.0 (Windows NT 10.0; Win64; x64) AppleWebKit/537.36 (KHTML, like Gecko) draw.io/25.0.2 Chrome/128.0.6613.186 Electron/32.2.5 Safari/537.36" version="25.0.2" pages="3">
  <diagram name="main" id="qmS58KAxXAEr0vMFqlMh">
    <mxGraphModel dx="1290" dy="717" grid="1" gridSize="10" guides="1" tooltips="1" connect="1" arrows="1" fold="1" page="1" pageScale="1" pageWidth="827" pageHeight="1169" math="0" shadow="0">
      <root>
        <mxCell id="0" />
        <mxCell id="1" parent="0" />
        <mxCell id="pjDH_rryMZIqUwMFjsyQ-1" value="" style="edgeStyle=orthogonalEdgeStyle;rounded=0;orthogonalLoop=1;jettySize=auto;html=1;" edge="1" parent="1" source="pjDH_rryMZIqUwMFjsyQ-2" target="pjDH_rryMZIqUwMFjsyQ-4">
          <mxGeometry relative="1" as="geometry" />
        </mxCell>
        <mxCell id="pjDH_rryMZIqUwMFjsyQ-2" value="Начало" style="ellipse;whiteSpace=wrap;html=1;" vertex="1" parent="1">
          <mxGeometry x="340" y="40" width="120" height="40" as="geometry" />
        </mxCell>
        <mxCell id="pjDH_rryMZIqUwMFjsyQ-3" value="" style="edgeStyle=orthogonalEdgeStyle;rounded=0;orthogonalLoop=1;jettySize=auto;html=1;" edge="1" parent="1" source="pjDH_rryMZIqUwMFjsyQ-4" target="pjDH_rryMZIqUwMFjsyQ-8">
          <mxGeometry relative="1" as="geometry" />
        </mxCell>
        <mxCell id="pjDH_rryMZIqUwMFjsyQ-4" value="int main()" style="shape=process;whiteSpace=wrap;html=1;backgroundOutline=1;" vertex="1" parent="1">
          <mxGeometry x="340" y="120" width="120" height="40" as="geometry" />
        </mxCell>
        <mxCell id="pjDH_rryMZIqUwMFjsyQ-5" value="" style="endArrow=none;dashed=1;html=1;rounded=0;" edge="1" parent="1" target="pjDH_rryMZIqUwMFjsyQ-6">
          <mxGeometry width="50" height="50" relative="1" as="geometry">
            <mxPoint x="400" y="100" as="sourcePoint" />
            <mxPoint x="560" y="100" as="targetPoint" />
          </mxGeometry>
        </mxCell>
        <mxCell id="pjDH_rryMZIqUwMFjsyQ-6" value="&lt;div&gt;#include &amp;lt;iostream&amp;gt;&lt;/div&gt;&lt;div&gt;using namespace std;&lt;/div&gt;&lt;div&gt;&lt;br&gt;&lt;/div&gt;&lt;div&gt;void show(int* arr, int n);&lt;/div&gt;&lt;div&gt;void shell_sort(int* arr, int n);&lt;/div&gt;&lt;div&gt;&lt;br&gt;&lt;/div&gt;&lt;div&gt;const int n = 10;&lt;/div&gt;" style="strokeWidth=2;html=1;shape=mxgraph.flowchart.annotation_1;align=left;pointerEvents=1;" vertex="1" parent="1">
          <mxGeometry x="540" y="40" width="50" height="120" as="geometry" />
        </mxCell>
        <mxCell id="pjDH_rryMZIqUwMFjsyQ-7" value="" style="edgeStyle=orthogonalEdgeStyle;rounded=0;orthogonalLoop=1;jettySize=auto;html=1;" edge="1" parent="1" source="pjDH_rryMZIqUwMFjsyQ-8" target="pjDH_rryMZIqUwMFjsyQ-11">
          <mxGeometry relative="1" as="geometry" />
        </mxCell>
        <mxCell id="pjDH_rryMZIqUwMFjsyQ-8" value="srand(time(nullptr));" style="whiteSpace=wrap;html=1;" vertex="1" parent="1">
          <mxGeometry x="340" y="200" width="120" height="40" as="geometry" />
        </mxCell>
        <mxCell id="pjDH_rryMZIqUwMFjsyQ-9" value="{" style="text;html=1;align=center;verticalAlign=middle;resizable=0;points=[];autosize=1;strokeColor=none;fillColor=none;" vertex="1" parent="1">
          <mxGeometry x="370" y="160" width="30" height="30" as="geometry" />
        </mxCell>
        <mxCell id="pjDH_rryMZIqUwMFjsyQ-10" value="" style="edgeStyle=orthogonalEdgeStyle;rounded=0;orthogonalLoop=1;jettySize=auto;html=1;" edge="1" parent="1" source="pjDH_rryMZIqUwMFjsyQ-11" target="pjDH_rryMZIqUwMFjsyQ-14">
          <mxGeometry relative="1" as="geometry" />
        </mxCell>
        <mxCell id="pjDH_rryMZIqUwMFjsyQ-11" value="int arr[n];" style="whiteSpace=wrap;html=1;" vertex="1" parent="1">
          <mxGeometry x="340" y="260" width="120" height="40" as="geometry" />
        </mxCell>
        <mxCell id="pjDH_rryMZIqUwMFjsyQ-12" value="" style="edgeStyle=orthogonalEdgeStyle;rounded=0;orthogonalLoop=1;jettySize=auto;html=1;" edge="1" parent="1" source="pjDH_rryMZIqUwMFjsyQ-14" target="pjDH_rryMZIqUwMFjsyQ-16">
          <mxGeometry relative="1" as="geometry" />
        </mxCell>
        <mxCell id="pjDH_rryMZIqUwMFjsyQ-13" style="edgeStyle=orthogonalEdgeStyle;rounded=0;orthogonalLoop=1;jettySize=auto;html=1;entryX=0.5;entryY=0;entryDx=0;entryDy=0;" edge="1" parent="1" source="pjDH_rryMZIqUwMFjsyQ-14" target="pjDH_rryMZIqUwMFjsyQ-20">
          <mxGeometry relative="1" as="geometry">
            <mxPoint x="400" y="500" as="targetPoint" />
            <Array as="points">
              <mxPoint x="500" y="340" />
              <mxPoint x="500" y="480" />
              <mxPoint x="400" y="480" />
            </Array>
          </mxGeometry>
        </mxCell>
        <mxCell id="pjDH_rryMZIqUwMFjsyQ-14" value="for (int i = 0; i &amp;lt; n; i++)" style="shape=hexagon;perimeter=hexagonPerimeter2;whiteSpace=wrap;html=1;fixedSize=1;" vertex="1" parent="1">
          <mxGeometry x="330" y="320" width="140" height="40" as="geometry" />
        </mxCell>
        <mxCell id="pjDH_rryMZIqUwMFjsyQ-15" style="edgeStyle=orthogonalEdgeStyle;rounded=0;orthogonalLoop=1;jettySize=auto;html=1;entryX=0;entryY=0.5;entryDx=0;entryDy=0;" edge="1" parent="1" source="pjDH_rryMZIqUwMFjsyQ-16" target="pjDH_rryMZIqUwMFjsyQ-14">
          <mxGeometry relative="1" as="geometry">
            <Array as="points">
              <mxPoint x="400" y="460" />
              <mxPoint x="310" y="460" />
              <mxPoint x="310" y="340" />
            </Array>
          </mxGeometry>
        </mxCell>
        <mxCell id="pjDH_rryMZIqUwMFjsyQ-16" value="arr[i] = rand() % 100 + 1;" style="whiteSpace=wrap;html=1;" vertex="1" parent="1">
          <mxGeometry x="330" y="400" width="140" height="40" as="geometry" />
        </mxCell>
        <mxCell id="pjDH_rryMZIqUwMFjsyQ-17" value="1" style="text;html=1;align=center;verticalAlign=middle;resizable=0;points=[];autosize=1;strokeColor=none;fillColor=none;" vertex="1" parent="1">
          <mxGeometry x="400" y="370" width="30" height="30" as="geometry" />
        </mxCell>
        <mxCell id="pjDH_rryMZIqUwMFjsyQ-18" value="0" style="text;html=1;align=center;verticalAlign=middle;resizable=0;points=[];autosize=1;strokeColor=none;fillColor=none;" vertex="1" parent="1">
          <mxGeometry x="480" y="310" width="30" height="30" as="geometry" />
        </mxCell>
        <mxCell id="pjDH_rryMZIqUwMFjsyQ-19" value="" style="edgeStyle=orthogonalEdgeStyle;rounded=0;orthogonalLoop=1;jettySize=auto;html=1;" edge="1" parent="1" source="pjDH_rryMZIqUwMFjsyQ-20" target="pjDH_rryMZIqUwMFjsyQ-22">
          <mxGeometry relative="1" as="geometry" />
        </mxCell>
        <mxCell id="pjDH_rryMZIqUwMFjsyQ-20" value="show(arr, n);" style="rounded=0;whiteSpace=wrap;html=1;" vertex="1" parent="1">
          <mxGeometry x="340" y="500" width="120" height="40" as="geometry" />
        </mxCell>
        <mxCell id="pjDH_rryMZIqUwMFjsyQ-21" value="" style="edgeStyle=orthogonalEdgeStyle;rounded=0;orthogonalLoop=1;jettySize=auto;html=1;" edge="1" parent="1" source="pjDH_rryMZIqUwMFjsyQ-22" target="pjDH_rryMZIqUwMFjsyQ-24">
          <mxGeometry relative="1" as="geometry" />
        </mxCell>
        <mxCell id="pjDH_rryMZIqUwMFjsyQ-22" value="shell_sort(arr, n);" style="rounded=0;whiteSpace=wrap;html=1;" vertex="1" parent="1">
          <mxGeometry x="330" y="560" width="140" height="40" as="geometry" />
        </mxCell>
        <mxCell id="pjDH_rryMZIqUwMFjsyQ-23" style="edgeStyle=orthogonalEdgeStyle;rounded=0;orthogonalLoop=1;jettySize=auto;html=1;entryX=0.5;entryY=0;entryDx=0;entryDy=0;" edge="1" parent="1" source="pjDH_rryMZIqUwMFjsyQ-24" target="pjDH_rryMZIqUwMFjsyQ-25">
          <mxGeometry relative="1" as="geometry">
            <mxPoint x="400" y="680" as="targetPoint" />
          </mxGeometry>
        </mxCell>
        <mxCell id="pjDH_rryMZIqUwMFjsyQ-24" value="show(arr, n);" style="rounded=0;whiteSpace=wrap;html=1;" vertex="1" parent="1">
          <mxGeometry x="330" y="620" width="140" height="40" as="geometry" />
        </mxCell>
        <mxCell id="pjDH_rryMZIqUwMFjsyQ-25" value="return 0;" style="ellipse;whiteSpace=wrap;html=1;" vertex="1" parent="1">
          <mxGeometry x="340" y="680" width="120" height="40" as="geometry" />
        </mxCell>
        <mxCell id="pjDH_rryMZIqUwMFjsyQ-26" value="}" style="text;html=1;align=center;verticalAlign=middle;resizable=0;points=[];autosize=1;strokeColor=none;fillColor=none;" vertex="1" parent="1">
          <mxGeometry x="400" y="720" width="30" height="30" as="geometry" />
        </mxCell>
      </root>
    </mxGraphModel>
  </diagram>
  <diagram id="dNET6fyPLwmgfX3mCDo6" name="show">
    <mxGraphModel dx="1290" dy="717" grid="1" gridSize="10" guides="1" tooltips="1" connect="1" arrows="1" fold="1" page="1" pageScale="1" pageWidth="827" pageHeight="1169" math="0" shadow="0">
      <root>
        <mxCell id="0" />
        <mxCell id="1" parent="0" />
        <mxCell id="4IDm2j9du5yuqkz0_aG7-1" value="" style="edgeStyle=orthogonalEdgeStyle;rounded=0;orthogonalLoop=1;jettySize=auto;html=1;" edge="1" parent="1" source="4IDm2j9du5yuqkz0_aG7-2" target="4IDm2j9du5yuqkz0_aG7-4">
          <mxGeometry relative="1" as="geometry" />
        </mxCell>
        <mxCell id="4IDm2j9du5yuqkz0_aG7-2" value="void show(int* arr, int n)" style="shape=process;whiteSpace=wrap;html=1;backgroundOutline=1;size=0.047619047619047616;" vertex="1" parent="1">
          <mxGeometry x="320" y="40" width="160" height="40" as="geometry" />
        </mxCell>
        <mxCell id="4IDm2j9du5yuqkz0_aG7-3" value="" style="edgeStyle=orthogonalEdgeStyle;rounded=0;orthogonalLoop=1;jettySize=auto;html=1;" edge="1" parent="1" source="4IDm2j9du5yuqkz0_aG7-4" target="4IDm2j9du5yuqkz0_aG7-8">
          <mxGeometry relative="1" as="geometry" />
        </mxCell>
        <mxCell id="4IDm2j9du5yuqkz0_aG7-4" value="cout &amp;lt;&amp;lt; &#39;{&#39;;" style="shape=parallelogram;perimeter=parallelogramPerimeter;whiteSpace=wrap;html=1;fixedSize=1;" vertex="1" parent="1">
          <mxGeometry x="340" y="120" width="120" height="40" as="geometry" />
        </mxCell>
        <mxCell id="4IDm2j9du5yuqkz0_aG7-5" value="{" style="text;html=1;align=center;verticalAlign=middle;resizable=0;points=[];autosize=1;strokeColor=none;fillColor=none;" vertex="1" parent="1">
          <mxGeometry x="370" y="80" width="30" height="30" as="geometry" />
        </mxCell>
        <mxCell id="4IDm2j9du5yuqkz0_aG7-6" value="" style="edgeStyle=orthogonalEdgeStyle;rounded=0;orthogonalLoop=1;jettySize=auto;html=1;" edge="1" parent="1" source="4IDm2j9du5yuqkz0_aG7-8" target="4IDm2j9du5yuqkz0_aG7-10">
          <mxGeometry relative="1" as="geometry" />
        </mxCell>
        <mxCell id="4IDm2j9du5yuqkz0_aG7-7" value="" style="edgeStyle=orthogonalEdgeStyle;rounded=0;orthogonalLoop=1;jettySize=auto;html=1;" edge="1" parent="1" source="4IDm2j9du5yuqkz0_aG7-8" target="4IDm2j9du5yuqkz0_aG7-13">
          <mxGeometry relative="1" as="geometry" />
        </mxCell>
        <mxCell id="4IDm2j9du5yuqkz0_aG7-8" value="for (int i = 0; i &amp;lt; n; i++)" style="shape=hexagon;perimeter=hexagonPerimeter2;whiteSpace=wrap;html=1;fixedSize=1;" vertex="1" parent="1">
          <mxGeometry x="325" y="180" width="150" height="40" as="geometry" />
        </mxCell>
        <mxCell id="4IDm2j9du5yuqkz0_aG7-9" style="edgeStyle=orthogonalEdgeStyle;rounded=0;orthogonalLoop=1;jettySize=auto;html=1;entryX=0;entryY=0.5;entryDx=0;entryDy=0;" edge="1" parent="1" source="4IDm2j9du5yuqkz0_aG7-10" target="4IDm2j9du5yuqkz0_aG7-8">
          <mxGeometry relative="1" as="geometry">
            <Array as="points">
              <mxPoint x="400" y="320" />
              <mxPoint x="255" y="320" />
              <mxPoint x="255" y="200" />
            </Array>
          </mxGeometry>
        </mxCell>
        <mxCell id="4IDm2j9du5yuqkz0_aG7-10" value="cout &amp;lt;&amp;lt; arr[i] &amp;lt;&amp;lt; ((i == n - 1) ? &quot;}\n&quot; : &quot;, &quot;);" style="shape=parallelogram;perimeter=parallelogramPerimeter;whiteSpace=wrap;html=1;fixedSize=1;" vertex="1" parent="1">
          <mxGeometry x="275" y="260" width="250" height="40" as="geometry" />
        </mxCell>
        <mxCell id="4IDm2j9du5yuqkz0_aG7-11" value="1" style="text;html=1;align=center;verticalAlign=middle;resizable=0;points=[];autosize=1;strokeColor=none;fillColor=none;" vertex="1" parent="1">
          <mxGeometry x="399" y="230" width="30" height="30" as="geometry" />
        </mxCell>
        <mxCell id="4IDm2j9du5yuqkz0_aG7-12" style="edgeStyle=orthogonalEdgeStyle;rounded=0;orthogonalLoop=1;jettySize=auto;html=1;entryX=0.5;entryY=0;entryDx=0;entryDy=0;" edge="1" parent="1" source="4IDm2j9du5yuqkz0_aG7-13" target="4IDm2j9du5yuqkz0_aG7-15">
          <mxGeometry relative="1" as="geometry" />
        </mxCell>
        <mxCell id="4IDm2j9du5yuqkz0_aG7-13" value="cout &amp;lt;&amp;lt; endl;" style="shape=parallelogram;perimeter=parallelogramPerimeter;whiteSpace=wrap;html=1;fixedSize=1;" vertex="1" parent="1">
          <mxGeometry x="580" y="260" width="120" height="40" as="geometry" />
        </mxCell>
        <mxCell id="4IDm2j9du5yuqkz0_aG7-14" value="0" style="text;html=1;align=center;verticalAlign=middle;resizable=0;points=[];autosize=1;strokeColor=none;fillColor=none;" vertex="1" parent="1">
          <mxGeometry x="610" y="168" width="30" height="30" as="geometry" />
        </mxCell>
        <mxCell id="4IDm2j9du5yuqkz0_aG7-15" value="return;" style="ellipse;whiteSpace=wrap;html=1;" vertex="1" parent="1">
          <mxGeometry x="580" y="320" width="120" height="40" as="geometry" />
        </mxCell>
        <mxCell id="4IDm2j9du5yuqkz0_aG7-16" value="}" style="text;html=1;align=center;verticalAlign=middle;resizable=0;points=[];autosize=1;strokeColor=none;fillColor=none;" vertex="1" parent="1">
          <mxGeometry x="640" y="360" width="30" height="30" as="geometry" />
        </mxCell>
      </root>
    </mxGraphModel>
  </diagram>
  <diagram id="FVLqbHkGP_9gf_0ySc73" name="shell_sort">
    <mxGraphModel dx="1290" dy="717" grid="1" gridSize="10" guides="1" tooltips="1" connect="1" arrows="1" fold="1" page="1" pageScale="1" pageWidth="827" pageHeight="1169" math="0" shadow="0">
      <root>
        <mxCell id="0" />
        <mxCell id="1" parent="0" />
        <mxCell id="5R5kxV32oDri_mvhkkP1-4" value="" style="edgeStyle=orthogonalEdgeStyle;rounded=0;orthogonalLoop=1;jettySize=auto;html=1;" edge="1" parent="1" source="5R5kxV32oDri_mvhkkP1-2" target="5R5kxV32oDri_mvhkkP1-3">
          <mxGeometry relative="1" as="geometry" />
        </mxCell>
        <mxCell id="5R5kxV32oDri_mvhkkP1-2" value="void shell_sort(int* arr, int n)" style="shape=process;whiteSpace=wrap;html=1;backgroundOutline=1;" vertex="1" parent="1">
          <mxGeometry x="300" y="40" width="200" height="40" as="geometry" />
        </mxCell>
        <mxCell id="5R5kxV32oDri_mvhkkP1-7" value="" style="edgeStyle=orthogonalEdgeStyle;rounded=0;orthogonalLoop=1;jettySize=auto;html=1;" edge="1" parent="1" source="5R5kxV32oDri_mvhkkP1-3" target="5R5kxV32oDri_mvhkkP1-6">
          <mxGeometry relative="1" as="geometry" />
        </mxCell>
        <mxCell id="5R5kxV32oDri_mvhkkP1-31" style="edgeStyle=orthogonalEdgeStyle;rounded=0;orthogonalLoop=1;jettySize=auto;html=1;entryX=0.5;entryY=0;entryDx=0;entryDy=0;" edge="1" parent="1" source="5R5kxV32oDri_mvhkkP1-3" target="xKMEsmkDbgERM2gDuSqA-1">
          <mxGeometry relative="1" as="geometry">
            <mxPoint x="720" y="200" as="targetPoint" />
          </mxGeometry>
        </mxCell>
        <mxCell id="5R5kxV32oDri_mvhkkP1-3" value="for (int gap = n / 2; gap &amp;gt; 0; gap /= 2)" style="shape=hexagon;perimeter=hexagonPerimeter2;whiteSpace=wrap;html=1;fixedSize=1;" vertex="1" parent="1">
          <mxGeometry x="290" y="120" width="220" height="40" as="geometry" />
        </mxCell>
        <mxCell id="5R5kxV32oDri_mvhkkP1-5" value="{" style="text;html=1;align=center;verticalAlign=middle;resizable=0;points=[];autosize=1;strokeColor=none;fillColor=none;" vertex="1" parent="1">
          <mxGeometry x="370" y="80" width="30" height="30" as="geometry" />
        </mxCell>
        <mxCell id="5R5kxV32oDri_mvhkkP1-11" value="" style="edgeStyle=orthogonalEdgeStyle;rounded=0;orthogonalLoop=1;jettySize=auto;html=1;" edge="1" parent="1" source="5R5kxV32oDri_mvhkkP1-6" target="5R5kxV32oDri_mvhkkP1-10">
          <mxGeometry relative="1" as="geometry" />
        </mxCell>
        <mxCell id="5R5kxV32oDri_mvhkkP1-28" style="edgeStyle=orthogonalEdgeStyle;rounded=0;orthogonalLoop=1;jettySize=auto;html=1;entryX=0;entryY=0.5;entryDx=0;entryDy=0;" edge="1" parent="1" source="5R5kxV32oDri_mvhkkP1-6" target="5R5kxV32oDri_mvhkkP1-3">
          <mxGeometry relative="1" as="geometry">
            <Array as="points">
              <mxPoint x="600" y="220" />
              <mxPoint x="600" y="580" />
              <mxPoint x="200" y="580" />
              <mxPoint x="200" y="140" />
            </Array>
          </mxGeometry>
        </mxCell>
        <mxCell id="5R5kxV32oDri_mvhkkP1-6" value="for (int i = gap; i &amp;lt; n; i++)" style="shape=hexagon;perimeter=hexagonPerimeter2;whiteSpace=wrap;html=1;fixedSize=1;" vertex="1" parent="1">
          <mxGeometry x="290" y="200" width="220" height="40" as="geometry" />
        </mxCell>
        <mxCell id="5R5kxV32oDri_mvhkkP1-8" value="{" style="text;html=1;align=center;verticalAlign=middle;resizable=0;points=[];autosize=1;strokeColor=none;fillColor=none;" vertex="1" parent="1">
          <mxGeometry x="370" y="160" width="30" height="30" as="geometry" />
        </mxCell>
        <mxCell id="5R5kxV32oDri_mvhkkP1-9" value="1" style="text;html=1;align=center;verticalAlign=middle;resizable=0;points=[];autosize=1;strokeColor=none;fillColor=none;" vertex="1" parent="1">
          <mxGeometry x="399" y="170" width="30" height="30" as="geometry" />
        </mxCell>
        <mxCell id="5R5kxV32oDri_mvhkkP1-14" value="" style="edgeStyle=orthogonalEdgeStyle;rounded=0;orthogonalLoop=1;jettySize=auto;html=1;" edge="1" parent="1" source="5R5kxV32oDri_mvhkkP1-10" target="5R5kxV32oDri_mvhkkP1-13">
          <mxGeometry relative="1" as="geometry" />
        </mxCell>
        <mxCell id="5R5kxV32oDri_mvhkkP1-10" value="int temp = arr[i];" style="whiteSpace=wrap;html=1;" vertex="1" parent="1">
          <mxGeometry x="340" y="280" width="120" height="40" as="geometry" />
        </mxCell>
        <mxCell id="5R5kxV32oDri_mvhkkP1-12" value="{" style="text;html=1;align=center;verticalAlign=middle;resizable=0;points=[];autosize=1;strokeColor=none;fillColor=none;" vertex="1" parent="1">
          <mxGeometry x="369" y="240" width="30" height="30" as="geometry" />
        </mxCell>
        <mxCell id="5R5kxV32oDri_mvhkkP1-16" value="" style="edgeStyle=orthogonalEdgeStyle;rounded=0;orthogonalLoop=1;jettySize=auto;html=1;" edge="1" parent="1" source="5R5kxV32oDri_mvhkkP1-13" target="5R5kxV32oDri_mvhkkP1-15">
          <mxGeometry relative="1" as="geometry" />
        </mxCell>
        <mxCell id="5R5kxV32oDri_mvhkkP1-25" style="edgeStyle=orthogonalEdgeStyle;rounded=0;orthogonalLoop=1;jettySize=auto;html=1;entryX=0;entryY=0.5;entryDx=0;entryDy=0;" edge="1" parent="1" source="5R5kxV32oDri_mvhkkP1-13" target="5R5kxV32oDri_mvhkkP1-6">
          <mxGeometry relative="1" as="geometry">
            <Array as="points">
              <mxPoint x="560" y="360" />
              <mxPoint x="560" y="560" />
              <mxPoint x="220" y="560" />
              <mxPoint x="220" y="220" />
            </Array>
          </mxGeometry>
        </mxCell>
        <mxCell id="5R5kxV32oDri_mvhkkP1-13" value="for (int j = i - gap; j &amp;gt;= 0 &amp;amp;&amp;amp; temp &amp;lt; arr[j]; j -= gap)" style="shape=hexagon;perimeter=hexagonPerimeter2;whiteSpace=wrap;html=1;fixedSize=1;" vertex="1" parent="1">
          <mxGeometry x="260" y="340" width="280" height="40" as="geometry" />
        </mxCell>
        <mxCell id="5R5kxV32oDri_mvhkkP1-22" value="" style="edgeStyle=orthogonalEdgeStyle;rounded=0;orthogonalLoop=1;jettySize=auto;html=1;" edge="1" parent="1" source="5R5kxV32oDri_mvhkkP1-15" target="5R5kxV32oDri_mvhkkP1-21">
          <mxGeometry relative="1" as="geometry" />
        </mxCell>
        <mxCell id="5R5kxV32oDri_mvhkkP1-15" value="arr[j + gap] = arr[j];" style="whiteSpace=wrap;html=1;" vertex="1" parent="1">
          <mxGeometry x="340" y="420" width="120" height="40" as="geometry" />
        </mxCell>
        <mxCell id="5R5kxV32oDri_mvhkkP1-17" value="{" style="text;html=1;align=center;verticalAlign=middle;resizable=0;points=[];autosize=1;strokeColor=none;fillColor=none;" vertex="1" parent="1">
          <mxGeometry x="370" y="380" width="30" height="30" as="geometry" />
        </mxCell>
        <mxCell id="5R5kxV32oDri_mvhkkP1-18" value="1" style="text;html=1;align=center;verticalAlign=middle;resizable=0;points=[];autosize=1;strokeColor=none;fillColor=none;" vertex="1" parent="1">
          <mxGeometry x="400" y="390" width="30" height="30" as="geometry" />
        </mxCell>
        <mxCell id="5R5kxV32oDri_mvhkkP1-23" style="edgeStyle=orthogonalEdgeStyle;rounded=0;orthogonalLoop=1;jettySize=auto;html=1;entryX=0;entryY=0.5;entryDx=0;entryDy=0;" edge="1" parent="1" source="5R5kxV32oDri_mvhkkP1-21" target="5R5kxV32oDri_mvhkkP1-13">
          <mxGeometry relative="1" as="geometry">
            <Array as="points">
              <mxPoint x="400" y="540" />
              <mxPoint x="240" y="540" />
              <mxPoint x="240" y="360" />
            </Array>
          </mxGeometry>
        </mxCell>
        <mxCell id="5R5kxV32oDri_mvhkkP1-21" value="arr[j] = temp;" style="whiteSpace=wrap;html=1;" vertex="1" parent="1">
          <mxGeometry x="340" y="480" width="120" height="40" as="geometry" />
        </mxCell>
        <mxCell id="5R5kxV32oDri_mvhkkP1-24" value="}" style="text;html=1;align=center;verticalAlign=middle;resizable=0;points=[];autosize=1;strokeColor=none;fillColor=none;" vertex="1" parent="1">
          <mxGeometry x="400" y="520" width="30" height="30" as="geometry" />
        </mxCell>
        <mxCell id="5R5kxV32oDri_mvhkkP1-26" value="0" style="text;html=1;align=center;verticalAlign=middle;resizable=0;points=[];autosize=1;strokeColor=none;fillColor=none;" vertex="1" parent="1">
          <mxGeometry x="535" y="330" width="30" height="30" as="geometry" />
        </mxCell>
        <mxCell id="5R5kxV32oDri_mvhkkP1-27" value="}" style="text;html=1;align=center;verticalAlign=middle;resizable=0;points=[];autosize=1;strokeColor=none;fillColor=none;" vertex="1" parent="1">
          <mxGeometry x="560" y="530" width="30" height="30" as="geometry" />
        </mxCell>
        <mxCell id="5R5kxV32oDri_mvhkkP1-29" value="}" style="text;html=1;align=center;verticalAlign=middle;resizable=0;points=[];autosize=1;strokeColor=none;fillColor=none;" vertex="1" parent="1">
          <mxGeometry x="600" y="550" width="30" height="30" as="geometry" />
        </mxCell>
        <mxCell id="5R5kxV32oDri_mvhkkP1-30" value="0" style="text;html=1;align=center;verticalAlign=middle;resizable=0;points=[];autosize=1;strokeColor=none;fillColor=none;" vertex="1" parent="1">
          <mxGeometry x="570" y="190" width="30" height="30" as="geometry" />
        </mxCell>
        <mxCell id="xKMEsmkDbgERM2gDuSqA-1" value="return;" style="ellipse;whiteSpace=wrap;html=1;" vertex="1" parent="1">
          <mxGeometry x="660" y="200" width="120" height="40" as="geometry" />
        </mxCell>
        <mxCell id="xKMEsmkDbgERM2gDuSqA-2" value="}" style="text;html=1;align=center;verticalAlign=middle;resizable=0;points=[];autosize=1;strokeColor=none;fillColor=none;" vertex="1" parent="1">
          <mxGeometry x="720" y="240" width="30" height="30" as="geometry" />
        </mxCell>
      </root>
    </mxGraphModel>
  </diagram>
</mxfile>
